<?xml version="1.0" standalone="no"?><!DOCTYPE svg PUBLIC "-//W3C//DTD SVG 1.1//EN" "http://www.w3.org/Graphics/SVG/1.1/DTD/svg11.dtd"><svg t="1620545272516" class="icon" viewBox="0 0 1024 1024" version="1.1" xmlns="http://www.w3.org/2000/svg" p-id="1717" xmlns:xlink="http://www.w3.org/1999/xlink" width="200" height="200"><defs><style type="text/css"></style></defs><path d="M786 318.292V399H241v-80.708c0-8.506 6.794-15.292 15.314-15.292h40.769v46.683c0 9.316 7.605 17.014 17.038 17.014 9.33 0 17.038-7.595 17.038-17.014V303h49.287v46.683c0 9.316 7.606 17.014 17.039 17.014 9.329 0 17.038-7.595 17.038-17.014V303h198.062v46.683c0 9.316 7.606 17.014 17.039 17.014 9.33 0 17.038-7.595 17.038-17.014V303h49.287v46.683c0 9.316 7.605 17.014 17.038 17.014 9.33 0 17.038-7.595 17.038-17.014V303h40.667c8.512 0 15.308 6.786 15.308 15.292z" fill="#FFC10D" p-id="1718"></path><path d="M275 468h476v283H275z" fill="#24E9E6" p-id="1719"></path><path d="M769.724 268.984h-40.76V222.09c0-9.36-7.603-17.09-17.034-17.09-9.327 0-17.035 7.628-17.035 17.09v46.894H645.62V222.09c0.002-9.36-7.603-17.09-17.032-17.09-9.43 0-17.035 7.628-17.035 17.09v46.894H414.448V222.09c0-9.36-7.605-17.09-17.035-17.09-9.429 0-17.034 7.628-17.034 17.09v46.894h-49.276V222.09c0-9.36-7.604-17.09-17.033-17.09-9.43 0-17.034 7.628-17.034 17.09v46.894h-40.76c-27.173 0-49.276 22.176-49.276 49.437v451.142C207 796.824 229.103 819 256.276 819h513.448C796.897 819 819 796.824 819 769.563V318.42c0-27.26-22.103-49.437-49.276-49.437z m15.31 500.579c0 8.544-6.794 15.36-15.312 15.36H256.276c-8.516 0-15.31-6.814-15.31-15.36v-335.99H784.93v335.99h0.102z m0-370.17H240.966V318.42c0-8.544 6.793-15.36 15.31-15.36h40.76v46.894c0 9.358 7.604 17.09 17.035 17.09 9.43 0 17.034-7.628 17.034-17.09v-46.894h49.276v46.894c0 9.358 7.604 17.09 17.035 17.09 9.43 0 17.034-7.628 17.034-17.09v-46.894H612.47v46.894c0 9.358 7.603 17.09 17.034 17.09 9.327 0 17.034-7.628 17.034-17.09v-46.894h49.277v46.894c0 9.358 7.603 17.09 17.034 17.09 9.327 0 17.034-7.628 17.034-17.09v-46.894h40.658c8.516 0 15.31 6.815 15.31 15.36v80.973h-0.818v-0.002z" fill="#194F82" p-id="1720"></path><path d="M299.025 586h33.95c9.322 0 17.025-7.588 17.025-17 0-9.412-7.6-17-17.025-17h-33.95c-9.322 0-17.025 7.588-17.025 17 0 9.412 7.703 17 17.025 17zM299.025 667h33.95c9.322 0 17.025-7.588 17.025-17 0-9.308-7.6-17-17.025-17h-33.95c-9.322 0-17.025 7.588-17.025 17 0.102 9.308 7.703 17 17.025 17zM299.025 748h33.95c9.322 0 17.025-7.588 17.025-17 0-9.308-7.6-17-17.025-17h-33.95c-9.322 0-17.025 7.588-17.025 17 0.102 9.412 7.703 17 17.025 17zM397.025 586h33.95c9.322 0 17.025-7.588 17.025-17 0-9.412-7.6-17-17.025-17h-33.95c-9.322 0-17.025 7.588-17.025 17 0 9.412 7.703 17 17.025 17zM397.025 667h33.95c9.322 0 17.025-7.588 17.025-17 0-9.308-7.6-17-17.025-17h-33.95c-9.322 0-17.025 7.588-17.025 17 0 9.308 7.703 17 17.025 17zM397.025 748h33.95c9.322 0 17.025-7.588 17.025-17 0-9.308-7.6-17-17.025-17h-33.95c-9.322 0-17.025 7.588-17.025 17 0 9.412 7.703 17 17.025 17zM496.025 505h33.95c9.322 0 17.025-7.588 17.025-17 0-9.308-7.6-17-17.025-17h-33.95c-9.322 0-17.025 7.588-17.025 17 0.102 9.31 7.703 17 17.025 17zM496.025 586h33.95c9.322 0 17.025-7.588 17.025-17 0-9.412-7.6-17-17.025-17h-33.95c-9.322 0-17.025 7.588-17.025 17 0 9.412 7.703 17 17.025 17zM496.025 667h33.95c9.322 0 17.025-7.588 17.025-17 0-9.308-7.6-17-17.025-17h-33.95c-9.322 0-17.025 7.588-17.025 17 0.102 9.308 7.703 17 17.025 17zM496.025 748h33.95c9.322 0 17.025-7.588 17.025-17 0-9.308-7.6-17-17.025-17h-33.95c-9.322 0-17.025 7.588-17.025 17 0.102 9.412 7.703 17 17.025 17zM594.025 505h33.95c9.323 0 17.025-7.588 17.025-17 0-9.308-7.6-17-17.025-17h-33.95c-9.322 0-17.025 7.588-17.025 17 0.002 9.31 7.703 17 17.025 17zM594.025 586h33.95c9.323 0 17.025-7.588 17.025-17 0-9.412-7.6-17-17.025-17h-33.95c-9.322 0-17.025 7.588-17.025 17 0 9.412 7.703 17 17.025 17zM594.025 667h33.95c9.323 0 17.025-7.588 17.025-17 0-9.308-7.6-17-17.025-17h-33.95c-9.322 0-17.025 7.588-17.025 17 0.002 9.308 7.703 17 17.025 17zM692.025 505h33.95c9.322 0 17.025-7.588 17.025-17 0-9.308-7.6-17-17.025-17h-33.95c-9.322 0-17.025 7.588-17.025 17 0 9.31 7.702 17 17.025 17zM692.025 586h33.95c9.322 0 17.025-7.588 17.025-17 0-9.412-7.6-17-17.025-17h-33.95c-9.322 0-17.025 7.588-17.025 17 0 9.412 7.702 17 17.025 17zM692.025 667h33.95c9.322 0 17.025-7.588 17.025-17 0-9.308-7.6-17-17.025-17h-33.95c-9.322 0-17.025 7.588-17.025 17 0 9.308 7.702 17 17.025 17z" fill="#194F82" p-id="1721"></path><path d="M299.025 586h33.95c9.322 0 17.025-7.588 17.025-17 0-9.412-7.6-17-17.025-17h-33.95c-9.322 0-17.025 7.588-17.025 17 0 9.412 7.703 17 17.025 17zM299.025 667h33.95c9.322 0 17.025-7.588 17.025-17 0-9.308-7.6-17-17.025-17h-33.95c-9.322 0-17.025 7.588-17.025 17 0.102 9.308 7.703 17 17.025 17zM299.025 748h33.95c9.322 0 17.025-7.588 17.025-17 0-9.308-7.6-17-17.025-17h-33.95c-9.322 0-17.025 7.588-17.025 17 0.102 9.412 7.703 17 17.025 17zM397.025 586h33.95c9.322 0 17.025-7.588 17.025-17 0-9.412-7.6-17-17.025-17h-33.95c-9.322 0-17.025 7.588-17.025 17 0 9.412 7.703 17 17.025 17zM397.025 667h33.95c9.322 0 17.025-7.588 17.025-17 0-9.308-7.6-17-17.025-17h-33.95c-9.322 0-17.025 7.588-17.025 17 0 9.308 7.703 17 17.025 17zM397.025 748h33.95c9.322 0 17.025-7.588 17.025-17 0-9.308-7.6-17-17.025-17h-33.95c-9.322 0-17.025 7.588-17.025 17 0 9.412 7.703 17 17.025 17zM496.025 505h33.95c9.322 0 17.025-7.588 17.025-17 0-9.308-7.6-17-17.025-17h-33.95c-9.322 0-17.025 7.588-17.025 17 0.102 9.31 7.703 17 17.025 17zM496.025 586h33.95c9.322 0 17.025-7.588 17.025-17 0-9.412-7.6-17-17.025-17h-33.95c-9.322 0-17.025 7.588-17.025 17 0 9.412 7.703 17 17.025 17zM496.025 667h33.95c9.322 0 17.025-7.588 17.025-17 0-9.308-7.6-17-17.025-17h-33.95c-9.322 0-17.025 7.588-17.025 17 0.102 9.308 7.703 17 17.025 17zM496.025 748h33.95c9.322 0 17.025-7.588 17.025-17 0-9.308-7.6-17-17.025-17h-33.95c-9.322 0-17.025 7.588-17.025 17 0.102 9.412 7.703 17 17.025 17zM594.025 505h33.95c9.323 0 17.025-7.588 17.025-17 0-9.308-7.6-17-17.025-17h-33.95c-9.322 0-17.025 7.588-17.025 17 0.002 9.31 7.703 17 17.025 17zM594.025 586h33.95c9.323 0 17.025-7.588 17.025-17 0-9.412-7.6-17-17.025-17h-33.95c-9.322 0-17.025 7.588-17.025 17 0 9.412 7.703 17 17.025 17zM594.025 667h33.95c9.323 0 17.025-7.588 17.025-17 0-9.308-7.6-17-17.025-17h-33.95c-9.322 0-17.025 7.588-17.025 17 0.002 9.308 7.703 17 17.025 17zM692.025 505h33.95c9.322 0 17.025-7.588 17.025-17 0-9.308-7.6-17-17.025-17h-33.95c-9.322 0-17.025 7.588-17.025 17 0 9.31 7.702 17 17.025 17zM692.025 586h33.95c9.322 0 17.025-7.588 17.025-17 0-9.412-7.6-17-17.025-17h-33.95c-9.322 0-17.025 7.588-17.025 17 0 9.412 7.702 17 17.025 17zM692.025 667h33.95c9.322 0 17.025-7.588 17.025-17 0-9.308-7.6-17-17.025-17h-33.95c-9.322 0-17.025 7.588-17.025 17 0 9.308 7.702 17 17.025 17z" fill="#194F82" p-id="1722"></path></svg>
