<?xml version="1.0" standalone="no"?><!DOCTYPE svg PUBLIC "-//W3C//DTD SVG 1.1//EN" "http://www.w3.org/Graphics/SVG/1.1/DTD/svg11.dtd"><svg class="icon" width="200px" height="200.00px" viewBox="0 0 1024 1024" version="1.1" xmlns="http://www.w3.org/2000/svg"><path fill="#1296db" d="M666.122449 909.061224c-10.44898 0-21.420408-1.044898-31.869388-2.612244-39.183673-4.702041-74.710204-23.510204-100.832653-53.289796-13.583673 5.22449-28.212245 5.22449-41.795918 0-21.420408 28.212245-61.64898 48.065306-108.669388 53.289796-66.35102 7.314286-138.44898-11.493878-144.718367-55.379592-5.22449-34.481633 37.093878-61.126531 81.502041-75.755102-25.6-28.212245-43.363265-63.738776-51.2-101.355102l-0.522449 0.522449c-25.077551 31.346939-41.795918 50.155102-61.126531 50.155102-2.089796 0-4.179592-0.522449-6.269388-1.044898-7.314286-2.612245-13.061224-8.881633-17.240816-18.808164-16.195918-34.481633-9.404082-100.310204 15.15102-150.465306 0 0 0-0.522449 0.522449-0.522449 12.538776-22.465306 27.689796-43.363265 45.453061-62.171428-6.269388-11.493878-10.44898-24.032653-12.016326-37.093878v-3.134694c0.522449-19.330612 10.44898-37.093878 26.644898-47.542857-10.971429-73.142857 9.926531-147.330612 58.514286-203.232653 49.110204-56.946939 120.163265-88.816327 194.873469-86.204081h4.702041c65.306122 0 129.567347 26.122449 177.110204 72.097959 49.110204 47.542857 76.8 112.326531 77.844898 180.767347v7.314285c0.522449 9.926531 0 19.330612-1.044898 29.257143 14.106122 8.881633 21.420408 20.37551 21.420408 48.065306 0 13.583673-1.044898 27.689796-9.926531 36.04898 13.061224 17.763265 28.734694 42.840816 41.27347 62.693877l2.612245 4.179592c20.37551 32.391837 23.510204 74.187755 22.987755 96.130613 0 17.240816-2.089796 58.514286-18.285714 70.530612-3.657143 2.612245-7.314286 3.657143-12.016327 3.657143h-4.179592c-26.122449 0-41.273469-23.510204-57.991837-48.587755l-1.567347-2.089796c-8.881633 36.571429-26.122449 71.053061-50.677551 99.265306 27.167347 9.404082 83.069388 31.346939 75.755103 73.142857-5.746939 35.526531-55.902041 62.171429-114.416327 62.171428z m-388.702041-63.738775z m250.253061-11.493878z m276.375511-140.016326z m-47.020409-235.102041z"  /></svg>
