<?xml version="1.0" standalone="no"?><!DOCTYPE svg PUBLIC "-//W3C//DTD SVG 1.1//EN" "http://www.w3.org/Graphics/SVG/1.1/DTD/svg11.dtd"><svg t="1620545367885" class="icon" viewBox="0 0 1024 1024" version="1.1" xmlns="http://www.w3.org/2000/svg" p-id="2670" xmlns:xlink="http://www.w3.org/1999/xlink" width="200" height="200"><defs><style type="text/css"></style></defs><path d="M544 661.333333a32 32 0 0 1-64 0V362.666667a32 32 0 0 1 64 0v298.666666z m160 0a32 32 0 0 1-64 0V490.666667a32 32 0 0 1 64 0v170.666666z m-320 0a32 32 0 0 1-64 0V448a32 32 0 0 1 64 0v213.333333zM202.666667 138.666667h618.666666c64.8 0 117.333333 52.533333 117.333334 117.333333v512c0 64.8-52.533333 117.333333-117.333334 117.333333H202.666667c-64.8 0-117.333333-52.533333-117.333334-117.333333V256c0-64.8 52.533333-117.333333 117.333334-117.333333z m0 64a53.333333 53.333333 0 0 0-53.333334 53.333333v512a53.333333 53.333333 0 0 0 53.333334 53.333333h618.666666a53.333333 53.333333 0 0 0 53.333334-53.333333V256a53.333333 53.333333 0 0 0-53.333334-53.333333H202.666667z" p-id="2671"></path></svg>