<?xml version="1.0" standalone="no"?><!DOCTYPE svg PUBLIC "-//W3C//DTD SVG 1.1//EN" "http://www.w3.org/Graphics/SVG/1.1/DTD/svg11.dtd"><svg t="1621065996086" class="icon" viewBox="0 0 1024 1024" version="1.1" xmlns="http://www.w3.org/2000/svg" p-id="1839" xmlns:xlink="http://www.w3.org/1999/xlink" width="200" height="200"><defs><style type="text/css"></style></defs><path d="M513.201002 512.003m-491.986961 0a491.986961 491.986961 0 1 0 983.973922 0 491.986961 491.986961 0 1 0-983.973922 0Z" fill="#FDDF6D" p-id="1840"></path><path d="M618.625208 931.355819c-271.716531 0-491.984961-220.26843-491.984961-491.984961 0-145.168284 62.886123-275.632538 162.888318-365.684714C130.252254 155.124303 21.212041 320.826627 21.212041 511.999c0 271.716531 220.26843 491.984961 491.984961 491.984961 126.548247 0 241.924473-47.794093 329.096643-126.298247-67.104131 34.312067-143.12228 53.670105-223.668437 53.670105z" fill="#FCC56B" p-id="1841"></path><path d="M834.117629 460.7269a20.000039 20.000039 0 0 1-17.504034-10.28002c-12.842025-23.052045-37.188073-37.372073-63.542124-37.372073-25.70205 0-50.378098 14.530028-64.404126 37.924074-5.684011 9.478019-17.978035 12.556025-27.458054 6.874013-9.482019-5.684011-12.558025-17.976035-6.874013-27.458053 21.216041-35.388069 59.048115-57.370112 98.736193-57.370112 40.86408 0 78.612154 22.192043 98.512192 57.922113 5.380011 9.656019 1.910004 21.846043-7.744015 27.222053a19.860039 19.860039 0 0 1-9.722019 2.538005zM492.660962 460.7269a20.000039 20.000039 0 0 1-17.504034-10.28002c-12.842025-23.052045-37.188073-37.372073-63.542124-37.372073-25.69805 0-50.378098 14.530028-64.404126 37.924074-5.682011 9.478019-17.974035 12.556025-27.458053 6.874013-9.478019-5.684011-12.558025-17.978035-6.872014-27.458053 21.216041-35.388069 59.048115-57.370112 98.736193-57.370112 40.86408 0 78.612154 22.192043 98.512192 57.922113 5.380011 9.656019 1.910004 21.846043-7.744015 27.222053a19.878039 19.878039 0 0 1-9.724019 2.538005zM587.091147 875.41371c-141.962277 0-257.044502-115.082225-257.044502-257.044502h514.087004c0 141.960277-115.082225 257.044502-257.042502 257.044502z" fill="#7F184C" p-id="1842"></path><path d="M392.764767 618.369208v40.122078c0 16.920033 13.714027 30.63406 30.63406 30.63406h327.386639c16.916033 0 30.63406-13.714027 30.63406-30.63406v-40.122078H392.764767z" fill="#F2F2F2" p-id="1843"></path><path d="M592.483157 768.771502c-69.480136-32.280063-146.588286-27.590054-209.108408 5.890011 46.984092 61.23412 120.864236 100.748197 204.014398 100.748197 36.640072 0 71.46214-7.718015 103.006201-21.534042-23.142045-35.80607-56.32611-65.782128-97.912191-85.104166z" fill="#FC4C59" p-id="1844"></path><path d="M302.23859 671.087311c-30.032059 32.846064-81.004158 35.130069-113.852222 5.09801s-35.130069-81.004158-5.09801-113.852223c30.032059-32.846064 167.822328-64.126125 167.822328-64.126125s-18.838037 140.032274-48.872096 172.880338zM855.335671 653.129276c30.032059 32.846064 81.004158 35.130069 113.852222 5.09801s35.130069-81.004158 5.09801-113.852223c-30.032059-32.846064-167.822328-64.126125-167.822328-64.126125s18.842037 140.036274 48.872096 172.880338z" fill="#3FA9F5" p-id="1845"></path><path d="M753.071471 373.052729c-39.688078 0-77.520151 21.982043-98.736193 57.370112-5.684011 9.482019-2.608005 21.774043 6.874013 27.458053 9.478019 5.682011 21.774043 2.608005 27.458054-6.874013 14.024027-23.394046 38.702076-37.924074 64.404126-37.924074 26.352051 0 50.702099 14.320028 63.542124 37.372073a20.000039 20.000039 0 0 0 27.226053 7.748015c9.658019-5.380011 13.124026-17.568034 7.744015-27.222053-19.900039-35.73607-57.648113-57.928113-98.512192-57.928113zM411.614804 373.052729c-39.686078 0-77.518151 21.982043-98.736193 57.370112-5.684011 9.478019-2.608005 21.774043 6.872014 27.458053 9.484019 5.682011 21.776043 2.608005 27.458053-6.874013 14.026027-23.394046 38.706076-37.924074 64.404126-37.924074 26.352051 0 50.702099 14.320028 63.542124 37.372073a20.000039 20.000039 0 0 0 27.226053 7.748015c9.658019-5.380011 13.124026-17.568034 7.744015-27.222053-19.898039-35.73607-57.644113-57.928113-98.510192-57.928113z" fill="" p-id="1846"></path><path d="M989.055932 530.873037c-32.608064-35.66607-154.132301-64.684126-178.162348-70.140137a20.016039 20.016039 0 0 0-24.266048 22.184043c2.042004 15.16603 9.778019 68.578134 23.152046 115.436226H352.584689c10.44202-41.766082 16.580032-84.226165 18.362036-97.476191a20.016039 20.016039 0 0 0-24.266048-22.184043c-24.030047 5.454011-145.554284 34.474067-178.162348 70.136137-37.430073 40.93608-34.574068 104.696204 6.364013 142.126278 18.694037 17.092033 42.604083 26.358051 67.772132 26.358051 1.532003 0 3.068006-0.034 4.608009-0.104 26.844052-1.200002 51.614101-12.786025 69.744136-32.618064 0.272001-0.296001 0.534001-0.652001 0.804002-0.958002 29.422057 121.380237 138.980271 211.794414 269.274526 211.794414 130.536255 0 241.356471-91.054178 269.912527-214.338419 17.220034 12.094024 37.508073 18.218036 57.850113 18.218036 11.548023 0 23.104045-1.996004 34.132066-5.962012-30.358059 72.630142-78.866154 137.476269-140.898275 187.182366-84.456165 67.674132-186.428364 103.444202-294.888576 103.444202-260.246508 0-471.970922-211.726414-471.970921-471.970922S252.950494 40.030078 513.197002 40.030078c214.730419 0 402.530786 144.914283 456.696892 352.404688 2.792005 10.698021 13.724027 17.106033 24.420048 14.310028 10.696021-2.792005 17.104033-13.728027 14.310028-24.420047C949.857855 157.216307 746.133457 0 513.197002 0c-282.320551 0-512.001 229.680449-512.001 511.999s229.680449 511.999 511.999 511.999c115.976227 0 229.592448-39.858078 319.916625-112.234219 88.950174-71.270139 152.292297-171.266335 178.362349-281.56055a19.986039 19.986039 0 0 0 0.502001-5.622011c8.454017-31.996062 1.024002-67.522132-22.920045-93.708183z m-743.581453 146.346286c-16.140032 0.734001-31.636062-4.89201-43.578085-15.808031-24.650048-22.536044-26.368052-60.924119-3.832007-85.574167 14.874029-16.268032 76.84015-37.304073 128.718251-51.0161-9.022018 52.892103-24.436048 116.488228-39.312077 132.762259-10.920021 11.940023-25.83405 18.914037-41.996082 19.636039z m341.612668 178.178348c-123.958242 0-225.998441-95.648187-236.192462-217.014424h472.388923c-10.20202 122.118239-112.928221 217.014424-236.196461 217.014424z m325.012634-196.132383c-16.164032-0.724001-31.076061-7.698015-41.994082-19.638039-2.584005-2.826006-5.18201-7.106014-7.760015-12.482024a19.606038 19.606038 0 0 0-1.264002-2.724005 176.690345 176.690345 0 0 1-4.77401-11.888024c-0.13-0.432001-0.294001-0.854002-0.454-1.272002-9.856019-27.620054-18.934037-68.472134-25.060049-104.400204 51.868101 13.706027 113.824222 34.734068 128.718251 51.0241 22.536044 24.648048 20.818041 63.038123-3.832007 85.574167-11.938023 10.916021-27.408054 16.534032-43.580086 15.806031z" fill="" p-id="1847"></path><path d="M1002.787959 452.064883m-20.01404 0a20.014039 20.014039 0 1 0 40.028079 0 20.014039 20.014039 0 1 0-40.028079 0Z" fill="" p-id="1848"></path></svg>