<svg width="82" height="24" viewBox="0 0 82 24" fill="none" xmlns="http://www.w3.org/2000/svg">
<g clip-path="url(#clip0)">
<g clip-path="url(#clip1)">
<path fill-rule="evenodd" clip-rule="evenodd" d="M38.9416 6.30363V12.0468L40.5851 11.4758V13.812L38.9416 14.383V18.917C38.9416 20.5686 38.5048 22.3503 38.1737 23.4655H36.0101C36.2803 22.6529 36.8796 20.6458 36.8796 18.917V15.0994L35.2524 15.6647V13.3285L36.8796 12.7632V6.30363H35.2524V4.21323H36.8796V0.479248H38.9416V4.21323H40.5831V6.30363H38.9416ZM66.2042 0.530029H67.7582H73.8101H75.3681L75.7033 0.922107C77.4707 3.02673 80.0873 5.15573 81.6272 6.23242V8.79615C80.6703 8.18265 76.5647 5.46451 74.3524 2.64075H73.8101H67.7582H67.222C65.0097 5.46451 60.9041 8.18265 59.9452 8.79615V6.23242C61.4871 5.15573 64.1036 3.02673 65.871 0.922107L66.2042 0.530029ZM63.2401 6.91507H78.3259V9.00141H71.8801V12.7007H80.6907V14.7871H71.8801V21.3123H75.0769L76.3556 16.5037H78.5475L77.2596 21.3123H81.3306V23.3987H60.2377V21.3123H64.3086L63.0188 16.5037H65.2128L66.4915 21.3123H69.6881V14.7871H60.8776V12.7007H69.6881V9.00141H63.2401V6.91507ZM56.9223 0.479248H56.9244V2.56965H56.9223V5.49506H56.9244V7.58546H43.8801V18.9048C43.8876 20.4396 43.7172 21.97 43.3723 23.4655H41.2087C41.6023 21.9776 41.7957 20.4439 41.7836 18.9048V0.479248H43.3601H43.8801H54.8319H56.9223ZM54.8319 5.49506H43.8801V2.56965H54.8319V5.49506ZM50.0558 8.9953H52.008V13.9441H54.5394V9.69418H56.4917V15.746H55.2403V15.7461H52.008V21.6515H54.8319V17.2858H56.7842V23.4554H54.8319V23.4534H47.2585V23.4554H45.3063V17.2858H47.2585V21.6515H50.0558V15.7461H46.5679V15.746H45.6232V9.69418H47.5754V13.9441H50.0558V8.9953Z" fill="#323232"/>
<path fill-rule="evenodd" clip-rule="evenodd" d="M15.0737 5.80396H15.0757L18.706 2.91722L15.0757 0.00406298L15.0717 0L11.4475 2.91112L15.0717 5.80193L15.0737 5.80396ZM15.0757 14.9111L15.0778 14.9091L24.4429 7.52057L21.9036 5.48096L15.0778 10.8664L15.0757 10.8685L15.0737 10.8705L8.2479 5.48502L5.71057 7.52463L15.0737 14.9132L15.0757 14.9111ZM15.0716 19.9614L15.0757 19.9593L27.614 10.066L30.1534 12.1056L24.449 16.6053L15.0757 24L0.243779 12.3047L0 12.1117L2.53936 10.0721L15.0716 19.9614Z" fill="#1E80FF"/>
</g>
</g>
<defs>
<clipPath id="clip0">
<rect width="81.6211" height="24" fill="white"/>
</clipPath>
<clipPath id="clip1">
<rect width="81.6211" height="24" fill="white"/>
</clipPath>
</defs>
</svg>
